<svg xmlns="http://www.w3.org/2000/svg" viewBox="0 0 131.63 136.25"><defs><style>.cls-1,.cls-2{isolation:isolate;}.cls-2{font-size:24.01px;letter-spacing:0.04em;}.cls-2,.cls-3,.cls-4,.cls-5{fill:#fff;}.cls-2,.cls-4,.cls-5{font-family:PoiretOne-Regular, Poiret One;}.cls-4,.cls-5{font-size:97.03px;stroke:#fff;stroke-miterlimit:10;stroke-width:4px;}.cls-4{letter-spacing:0.04em;}.cls-5{letter-spacing:0.04em;}</style></defs><g id="Calque_2" data-name="Calque 2"><g id="Calque_1-2" data-name="Calque 1"><g id="Groupe_43" data-name="Groupe 43"><g id="tara_foto" data-name="tara foto" class="cls-1"><text class="cls-2" transform="translate(21.19 131.26)">tarafoto</text></g><path id="Soustraction_1" data-name="Soustraction 1" class="cls-3" d="M121.86,135.74h0a1.38,1.38,0,0,1-1-.39,1.22,1.22,0,0,1-.05-1.74l0,0a1.43,1.43,0,0,1,1-.41,1.33,1.33,0,0,1,1.35,1.27,1.22,1.22,0,0,1-.37.88A1.39,1.39,0,0,1,121.86,135.74Zm7.81-6.13h0a1.36,1.36,0,0,1-1-.37,1.23,1.23,0,0,1-.39-.9,1.35,1.35,0,1,1,2.7-.17,1.34,1.34,0,0,1-1.26,1.43ZM11.22,126.46a5.27,5.27,0,0,1-.89-.1,4.29,4.29,0,0,1-1.47-.63,4.28,4.28,0,0,1-.61-.5l0,0a4.31,4.31,0,0,1-.51-.62,5.76,5.76,0,0,1-.38-.69v0a4.12,4.12,0,0,1-.23-.78,3.91,3.91,0,0,1-.09-.83l0-9.48v-.3c0-27.36-.17-91.44.34-97.56h0a5.7,5.7,0,0,1,.09-.83,4.73,4.73,0,0,1,.25-.81v0A4.9,4.9,0,0,1,8,12.53a4.85,4.85,0,0,1,.51-.61l0,0a5,5,0,0,1,.62-.5,4.28,4.28,0,0,1,.7-.38h0a4.63,4.63,0,0,1,.8-.25,6,6,0,0,1,.83-.08h0c7.55.06,15.08.15,23.45.25l4.13.05h3.17c7.15,0,14.25.12,21.11.24l2.26,0c4.79.08,9.74.16,14.62.18,1.66,0,17.26.46,28,1a66.71,66.71,0,0,1,9.56.94h.18l0,0q1.89.45,1.89,1c0,.79-.66,1.2-1.9,1.2.74,16.13,1.36,33.58,1.89,53.35.47,17.45.82,34.62,1.2,53.65a2.92,2.92,0,0,1,0,.51,3.65,3.65,0,0,1-.22.66l-.08.15a2.07,2.07,0,0,1-.59.73l0,0a1.67,1.67,0,0,1-.77.45l-.38.11a2.24,2.24,0,0,1-.52.06l-5.3.09v-2.28l2.78,0,1.61,0,.33-.43.53,0c-.06-5.64-.25-11.44-.44-17v-.44l0-.58c-.14-4.38-.29-8.9-.37-13.39-.1-4.72-.32-9.57-.53-14.26l0-.34,0-.49c-.23-5-.46-10.09-.54-15.21l-.11-6.61c-.14-8.12-.28-16.52-.25-24.47,0-4-.14-8.11-.27-12.08l-.08-2.29.49,0v-.29a13.41,13.41,0,0,1-3.5.63h0a8.45,8.45,0,0,1-1.23-.06,1.89,1.89,0,0,1-1.13-.48c-1.47-.23-5.8-.43-9.18-.55-4.58-.16-10.62-.31-18.46-.44l.76.21c-1.75,0-3.52,0-5.23.06-3.16.05-6.43.1-9.63.1H68l-1.15,0h-.29V14.3a14.83,14.83,0,0,1-3.19.26c-1.32,0-2.88-.08-4.62-.24l-2.58,0-4.54-.13c-.76.71-4,.82-5.85.82H44.69a6.17,6.17,0,0,1-.74-.07h-.08a4.58,4.58,0,0,1-1.5-.7l-1.86-.09a7.16,7.16,0,0,1-3.52.82h0l-.19,0a4.87,4.87,0,0,1-.93.08,22.53,22.53,0,0,1-3.28-.35h-.08a161,161,0,0,0-16.29-.73l-4.8-.08v0h-.05v0L11,14h0l0,0s0,0,0,0l0,0-.24.31,0,0a0,0,0,0,1,0,0l-.16.42,0,.23c-.05,3.65-.12,7.25-.21,11.23l0,1.27c-.12,5.9-.24,12-.22,18,.24,18.09,0,36.51-.2,54.33v.44L9.67,112.7l-.07,9.48,0,.14v.24a.28.28,0,0,0,0,.13l.22.37a.27.27,0,0,1,0,.12.07.07,0,0,0,0,.08l.33.26a.36.36,0,0,1,.07.1.07.07,0,0,0,.06.06l.47.14.05,0,.33,0h4.47v2.57l-3.48,0h-1ZM131,121.74h0a.6.6,0,0,1-.6-.6.59.59,0,0,1,.6-.59.62.62,0,0,1,.46.19.57.57,0,0,1,.17.41.62.62,0,0,1-.63.59Zm-6.22-4a.6.6,0,0,1-.62-.59.51.51,0,0,1,.16-.4.67.67,0,0,1,.93,0,.58.58,0,0,1,0,.81.67.67,0,0,1-.47.18Zm4.62-9.21a1.41,1.41,0,0,1-1-.41,1.22,1.22,0,0,1-.36-.86,1.31,1.31,0,0,1,1.34-1.28h0a1.28,1.28,0,0,1,0,2.55h0Zm-4-18.47h0a.6.6,0,0,1-.56-.64.59.59,0,0,1,.63-.56.6.6,0,0,1,.56.61.63.63,0,0,1-.63.59ZM3.6,32.59a1.41,1.41,0,0,1-.88-.31,1.38,1.38,0,0,1-.51-.93,1.2,1.2,0,0,1,.26-.91,1.26,1.26,0,0,1,1-.45,1.36,1.36,0,0,1,.87.32,1.31,1.31,0,0,1,.25,1.83A1.21,1.21,0,0,1,3.6,32.59ZM1.4,22.93a1.36,1.36,0,0,1-.88-.32A1.36,1.36,0,0,1,0,21.68a1.25,1.25,0,0,1,.26-.91,1.26,1.26,0,0,1,1-.45,1.4,1.4,0,0,1,.87.31,1.33,1.33,0,0,1,.26,1.85A1.26,1.26,0,0,1,1.4,22.93Zm10.78-6.28a.68.68,0,0,1-.41-.14.63.63,0,0,1-.12-.87.6.6,0,0,1,.45-.21.66.66,0,0,1,.66.59.59.59,0,0,1-.13.42A.6.6,0,0,1,12.18,16.65ZM4.86,15.8a.64.64,0,0,1-.53-1,.62.62,0,0,1,.46-.21.67.67,0,0,1,.65.57.57.57,0,0,1-.58.65ZM1.5,10.26a.64.64,0,0,1-.65-.58.57.57,0,0,1,.5-.63h.07a.68.68,0,0,1,.41.14A.62.62,0,0,1,2,10H2A.59.59,0,0,1,1.5,10.26ZM118.57,9a1.39,1.39,0,0,1-1-.41,1.22,1.22,0,0,1,0-1.73h0a1.37,1.37,0,0,1,1-.4h0a1.32,1.32,0,0,1,1.35,1.28A1.33,1.33,0,0,1,118.57,9ZM114.35,7.5a.64.64,0,0,1-.46-.19.53.53,0,0,1-.17-.41.61.61,0,0,1,.63-.59.66.66,0,0,1,.46.19.57.57,0,0,1,.17.41A.61.61,0,0,1,114.35,7.5ZM14.87,6.75a1.41,1.41,0,0,1-1.39-1.24,1.24,1.24,0,0,1,1.09-1.36h.15a1.48,1.48,0,0,1,.88.32,1.4,1.4,0,0,1,.51.93,1.21,1.21,0,0,1-.26.91A1.23,1.23,0,0,1,14.87,6.75Z"/></g><text class="cls-4" transform="translate(35.61 111.08) scale(1.12 1)">t</text><text class="cls-5" transform="translate(59.57 86.9) scale(1.12 1)">f</text></g></g></svg>